<svg id="troller" enable-background="new 0 0 300 300" height="512" viewBox="0 0 300 300" width="512" xmlns="http://www.w3.org/2000/svg" fill="white"><path d="m52.645 83.715h54c7.719 0 14-6.281 14-14 0-7.039-5.225-12.883-12-13.859 0-.047 0-.094 0-.141 0-15.438-12.561-28-28-28-14.082 0-25.77 10.449-27.715 24.004-.096-.004-.189-.004-.285-.004-8.822 0-16 7.176-16 16s7.178 16 16 16zm0-24c.846 0 1.727.168 2.691.512 1.246.449 2.631.246 3.699-.531 1.07-.781 1.686-2.035 1.645-3.359-.002-.051-.031-.57-.035-.621 0-11.027 8.973-20 20-20s20 8.973 20 20c0 1.152-.113 2.332-.346 3.605-.242 1.336.207 2.703 1.195 3.633.988.934 2.381 1.293 3.699.969.574-.141 1.035-.207 1.451-.207 3.309 0 6 2.691 6 6s-2.691 6-6 6h-54c-4.412 0-8-3.59-8-8s3.589-8.001 8.001-8.001z"/><path d="m211.168 122.109c.75.75 1.768 1.172 2.828 1.172s2.078-.422 2.828-1.172l13.469-13.473c1.562-1.562 1.562-4.094 0-5.656l-8.082-8.082c-1.074-1.074-2.666-1.457-4.094-.965l-5.736 1.91-8.531-8.531 15.975-1.773c1.529-.172 2.824-1.203 3.334-2.652.508-1.453.141-3.066-.947-4.152l-13.471-13.469c-.643-.645-1.484-1.047-2.387-1.148l-22.852-2.539-7.275-7.277c-7.541-7.535-19.188-8.969-28.314-3.488l-.627.375c-1.059.633-1.766 1.719-1.916 2.941-.152 1.223.27 2.449 1.141 3.32zm-40.597-62.152 8.268 8.27c.643.641 1.482 1.047 2.387 1.148l22.852 2.539 6.594 6.594-15.975 1.773c-1.529.172-2.824 1.203-3.334 2.652-.508 1.453-.141 3.066.947 4.152l16.164 16.164c1.07 1.07 2.656 1.445 4.094.965l5.736-1.91 3.506 3.504-7.812 7.816-57.699-57.699c5.039-1.206 10.457.22 14.272 4.032z"/><path d="m235.883 63.715h.029c3.729 0 7.234-1.449 9.877-4.082 2.65-2.637 4.113-6.152 4.119-9.891.014-7.719-6.256-14.012-13.975-14.027-.01 0-.02 0-.029 0-3.729 0-7.234 1.449-9.877 4.082-2.65 2.637-4.113 6.152-4.119 9.891-.013 7.718 6.256 14.011 13.975 14.027zm-4.209-18.25c1.131-1.129 2.633-1.75 4.23-1.75h.014c3.309.008 5.996 2.703 5.99 6.012-.002 1.602-.629 3.109-1.766 4.238-1.131 1.129-2.633 1.75-4.23 1.75-.004 0-.008 0-.014 0-3.309-.008-5.996-2.703-5.99-6.012.003-1.601.629-3.109 1.766-4.238z"/><path d="m258.201 81.203c-2.478.345-4.207 2.632-3.862 5.11.344 2.478 2.632 4.207 5.11 3.862s4.207-2.633 3.863-5.11-2.633-4.207-5.111-3.862z"/><path d="m147.449 106.176c2.478-.345 4.207-2.633 3.863-5.11s-2.632-4.207-5.11-3.862-4.207 2.632-3.862 5.11c.343 2.477 2.631 4.206 5.109 3.862z"/><path d="m51.311 161.065c-.344-2.478-2.632-4.207-5.11-3.862s-4.207 2.632-3.862 5.11c.344 2.478 2.632 4.207 5.11 3.862 2.478-.344 4.207-2.632 3.862-5.11z"/><path d="m255.35 114.641-28 23.312c-.914.762-1.441 1.887-1.441 3.074v95.086h-16v-84.398c0-2.211-1.791-4-4-4h-12v-8c0-2.211-1.791-4-4-4s-4 1.789-4 4v8h-12c-2.209 0-4 1.789-4 4v84.398h-8v-84.398c0-2.211-1.791-4-4-4h-12v-8c0-2.211-1.791-4-4-4s-4 1.789-4 4v8h-12c-2.209 0-4 1.789-4 4v84.398h-8v-84.398c0-2.211-1.791-4-4-4h-12v-8c0-2.211-1.791-4-4-4s-4 1.789-4 4v8h-12c-2.209 0-4 1.789-4 4v84.398h-20c-2.209 0-4 1.789-4 4s1.791 4 4 4h27.337c-2.942 2.992-4.769 7.084-4.769 11.602 0 9.137 7.434 16.57 16.572 16.57s16.572-7.434 16.572-16.57c0-4.518-1.827-8.609-4.769-11.602h70.111c-2.942 2.992-4.769 7.084-4.769 11.602 0 9.137 7.434 16.57 16.572 16.57s16.572-7.434 16.572-16.57c0-4.518-1.827-8.609-4.769-11.602h31.337c2.209 0 4-1.789 4-4v-97.211l26.559-22.113c1.699-1.414 1.93-3.938.516-5.633-1.414-1.699-3.94-1.926-5.631-.515zm-162.301 149.644c-4.727 0-8.572-3.844-8.572-8.57s3.846-8.57 8.572-8.57 8.572 3.844 8.572 8.57-3.845 8.57-8.572 8.57zm93.719 0c-4.727 0-8.572-3.844-8.572-8.57s3.846-8.57 8.572-8.57 8.572 3.844 8.572 8.57-3.845 8.57-8.572 8.57zm-8.859-108.57h24v80.398h-24zm-48 0h24v80.398h-24zm-48 0h24v80.398h-24z"/><path d="m48.806 123.257 4.512 4.528c.781.785 1.809 1.176 2.834 1.176 1.021 0 2.043-.391 2.824-1.168 1.564-1.559 1.568-4.09.01-5.656l-4.512-4.528 4.53-4.515c1.564-1.559 1.568-4.09.01-5.656s-4.092-1.566-5.658-.008l-4.528 4.512-4.511-4.527c-1.561-1.566-4.094-1.566-5.658-.008s-1.568 4.09-.01 5.656l4.511 4.527-4.527 4.512c-1.564 1.559-1.568 4.09-.01 5.656.781.785 1.809 1.176 2.834 1.176 1.021 0 2.043-.391 2.824-1.168z"/></svg>